<svg version="1.2" xmlns="http://www.w3.org/2000/svg" viewBox="0 0 1280 1242" width="640" height="621">
    <path  d="m1256 817c0 0 12.7 11.1 0 39 0 0 13.7 4.6 17 10 4.1 6.8 0.4 44.3-2 72-11.7 23.5-37.3 20.1-34 36-21.4 22.2-48 41.6-163 56-13 1.6-49 30-79 30-29.7 19.3-53.2 34.6-158 40-11.4 14.3-72.6 48.4-159 16-56.8 3.6-53-5.7-75-14-51.1 4.2-81.8-19.2-112-25-30 0-180.4 74.8-213 7 12.6-17.2 47.6-25.6 27-34-30 0-99.7 3.4-127 0-29.8-3.7-56.1-13.5-94-10-29.9 2.8-74.3 33.7-64-18 5.9-29.4 41.6-7.4 40-34-1.8-29.9 0-87 0-87l2-55c0 0-0.1-80.4-8-104-22.8-10.2-40.3 8.9-39-39 9.2-28.6 41.2-87.8 50-97 138.4-145.7 90-110.4 111.9-145.4 51.4-82.4 23.7-127.2 339.1-256.6 6.6-2.7 23.1-7.2 14.5-24.2-5-10 6.5-18.9 0-34.8-5.8-14.2 5-18.8-1.6-33.2-4.9-10.7-1.3-44.3 5.1-52.8 9.9-13 27.4-18 83-53 46.7-3.3 72.9 6.6 85.4 10 5 9.1 21.1 17.8 29.8 37.6 6.2 14-8.7 20.1-14.6 43.1-3.2 23.8-1.6 36.6-1.6 37.3 0.4 6.3 23-5 23-5 34.7-20 21.9-25.6 66.3-20.6 22.2-12.3 29 0.8 54.3-0.1 24.9 32.4 71.9 23.8 138.4 190.7 40.1 32.5 52.1 90.9 80 102 4.5 1.8 70.1 85.8 115 113 0 0 43.2 12.5 70 50-0.8 7.8 23.8 11.9 1 57 0 0-14.3 2.7-35 13 0 0-10-1-40-1-14.7 3.8-10 2.9-12 15 4.2 17.9-3.6 135.1 1 149 6.7-16.1 13.8-24.6 30.4-42.7 54.7 41.3 58.7 36.9 47.6 62.7z"/>
</svg>