<?xml version="1.0" standalone="no"?>
<!DOCTYPE svg PUBLIC "-//W3C//DTD SVG 20010904//EN"
 "http://www.w3.org/TR/2001/REC-SVG-20010904/DTD/svg10.dtd">
<svg version="1.0" xmlns="http://www.w3.org/2000/svg"
 width="320.000000pt" height="310.000000pt" viewBox="0 0 1280.000000 1242.000000"
 preserveAspectRatio="xMidYMid meet">
<metadata>
Created by potrace 1.15, written by Peter Selinger 2001-2017
</metadata>
<g transform="translate(0.000000,1242.000000) scale(0.100000,-0.100000)"
fill="#000000" stroke="none">
<path d="M7723 12413 c-7 -2 -13 -13 -13 -23 0 -24 58 -37 89 -21 46 25 -24
66 -76 44z"/>
<path d="M6177 12395 c-78 -22 -181 -75 -387 -202 -108 -66 -241 -143 -297
-171 -111 -56 -134 -78 -159 -155 -9 -29 -26 -70 -37 -92 -18 -35 -21 -57 -20
-166 1 -125 1 -127 -23 -138 -34 -15 -32 -55 7 -93 27 -28 32 -40 40 -117 11
-109 11 -101 -5 -101 -44 0 -45 -90 0 -155 21 -31 24 -47 24 -123 0 -81 -2
-88 -22 -97 -15 -6 -26 -24 -32 -48 -12 -46 2 -73 34 -69 21 2 21 0 14 -80 -3
-46 -7 -84 -8 -84 0 -1 -244 -126 -541 -278 -349 -178 -631 -314 -795 -385
-303 -129 -371 -161 -470 -219 -41 -25 -199 -110 -350 -190 -403 -213 -560
-317 -747 -495 -146 -140 -283 -323 -308 -415 -22 -75 -100 -232 -208 -415
-48 -82 -101 -176 -119 -210 -17 -34 -45 -78 -63 -98 -44 -49 -59 -98 -52
-176 4 -56 2 -67 -15 -82 -11 -9 -30 -39 -44 -68 -17 -36 -77 -105 -199 -232
-179 -186 -349 -379 -468 -533 -37 -48 -100 -114 -140 -146 -102 -84 -180
-170 -223 -250 -21 -37 -93 -165 -160 -284 -137 -243 -193 -361 -226 -475 -12
-43 -30 -87 -39 -98 -25 -28 -59 -120 -59 -157 l0 -30 27 17 c25 17 26 17 19
-1 -4 -11 -10 -55 -13 -100 -6 -79 -5 -81 26 -116 48 -55 101 -71 239 -72
l117 -1 6 -30 c4 -16 7 -77 8 -135 1 -67 6 -114 15 -131 10 -20 15 -120 21
-422 l7 -395 -23 -4 c-36 -5 -45 -83 -33 -279 10 -158 22 -204 44 -169 13 21
13 -761 -1 -891 -16 -163 -35 -189 -137 -189 -94 0 -196 -72 -249 -175 -36
-69 -36 -151 -1 -220 41 -80 58 -90 147 -89 86 1 163 17 359 75 113 34 157 42
248 46 112 5 256 -8 316 -29 32 -12 30 -12 -53 -24 -151 -20 -264 -67 -264
-109 0 -66 207 -65 575 0 214 38 337 44 993 47 539 3 619 1 627 -12 18 -30 -2
-48 -195 -172 -38 -25 -103 -73 -143 -107 -80 -67 -130 -95 -240 -135 -113
-40 -259 -66 -430 -75 -192 -11 -210 -17 -400 -139 -174 -112 -256 -158 -392
-217 -110 -48 -150 -77 -150 -107 0 -63 84 -164 172 -209 31 -16 65 -40 75
-55 50 -72 80 -97 167 -139 94 -46 232 -85 299 -85 40 0 61 -16 100 -79 49
-78 129 -99 419 -110 232 -9 249 -13 283 -65 30 -45 70 -55 271 -66 213 -11
254 -19 339 -59 33 -16 77 -32 97 -36 42 -8 108 10 108 30 0 17 -67 77 -121
108 -66 37 -129 55 -284 77 -77 11 -164 27 -193 36 -46 13 -53 19 -59 45 -11
58 -46 69 -313 99 -220 24 -240 30 -240 74 0 43 -24 73 -68 86 -20 5 -129 24
-242 40 -314 47 -323 50 -345 125 -16 55 -67 112 -134 148 -18 9 -31 23 -29
30 6 17 156 94 268 136 l95 36 560 1 c536 1 704 8 823 35 24 5 87 31 140 58
106 53 189 79 357 110 130 25 218 49 300 84 33 14 96 30 140 36 45 7 92 20
109 31 71 46 116 60 261 80 165 23 238 39 332 69 l63 20 50 -26 c31 -16 76
-29 118 -33 74 -7 215 -62 412 -158 113 -56 116 -57 217 -60 77 -3 127 1 208
17 58 12 114 20 124 16 29 -9 120 -82 245 -197 139 -128 190 -161 250 -160 87
2 103 16 137 127 12 38 27 69 39 75 49 26 129 5 335 -88 139 -62 199 -78 410
-102 230 -27 267 -36 315 -77 54 -47 116 -72 210 -85 44 -7 79 -17 77 -22 -7
-20 -113 -86 -179 -112 -86 -33 -118 -68 -118 -131 0 -43 4 -49 68 -112 60
-57 73 -77 102 -151 40 -104 85 -174 125 -196 33 -18 43 -17 205 10 52 9 126
20 163 26 86 13 145 43 282 144 112 82 249 166 272 166 28 0 101 42 111 64 12
27 -4 71 -38 101 -17 15 -36 20 -84 20 -50 0 -74 -7 -137 -38 -68 -34 -115
-67 -353 -250 -96 -74 -167 -111 -195 -102 -52 16 -64 104 -31 220 26 89 20
122 -26 141 -18 8 -57 14 -86 14 l-52 0 42 42 c27 26 46 56 53 82 5 23 12 49
15 59 3 9 18 24 34 32 61 32 80 107 39 159 -32 41 -62 48 -201 47 -70 -1 -129
3 -132 8 -10 16 5 41 34 56 15 8 62 17 106 21 100 8 163 35 213 89 34 37 61
94 61 131 0 8 51 14 153 18 655 30 856 48 1007 89 144 41 204 75 345 196 113
98 138 106 506 165 205 32 222 40 253 110 20 46 33 60 78 85 77 45 185 77 344
101 76 11 174 27 218 35 128 24 127 24 216 -60 43 -41 91 -80 107 -86 17 -6
52 -8 86 -4 51 6 61 5 78 -13 25 -28 76 -36 130 -22 73 20 103 58 115 149 4
28 10 54 15 57 17 10 49 -17 82 -69 46 -71 63 -84 137 -104 52 -14 108 -17
270 -18 190 0 208 2 253 22 53 25 59 44 25 80 -12 13 -16 23 -10 23 6 0 19 15
29 33 14 25 17 58 18 160 0 125 -1 129 -25 149 -50 40 -122 3 -172 -90 -9 -18
-30 -37 -45 -43 -79 -31 -95 -42 -115 -74 -18 -32 -22 -34 -37 -21 -9 8 -48
19 -87 25 -39 6 -88 18 -110 27 -45 18 -104 61 -104 74 0 17 54 37 149 54 101
18 180 52 205 88 25 35 20 103 -9 146 -14 20 -25 42 -25 49 0 19 81 82 150
116 46 23 79 32 113 32 78 0 80 5 98 310 16 277 13 487 -9 565 l-17 65 -58 0
c-67 0 -80 12 -71 65 9 58 28 77 81 84 77 11 83 14 83 47 0 25 -18 49 -99 132
l-99 102 51 100 c45 87 51 108 51 160 0 51 -7 75 -47 156 -75 156 -110 175
-362 204 -77 8 -159 18 -182 21 l-42 5 -90 -119 c-109 -145 -166 -237 -181
-291 -6 -23 -15 -41 -20 -41 -13 0 -13 0 5 49 20 57 42 239 56 461 15 237 14
801 -1 900 -6 41 -14 105 -17 141 -5 62 -4 67 21 87 38 29 122 36 306 24 179
-12 237 -5 288 35 61 49 94 62 160 63 74 0 115 18 131 57 25 62 74 271 73 310
-6 126 -189 377 -356 487 -47 31 -113 77 -148 103 -63 48 -117 76 -258 133
-133 54 -279 180 -684 590 -274 279 -422 442 -468 515 -39 62 -70 88 -150 120
l-73 30 -50 95 c-28 52 -71 129 -96 170 -25 41 -94 154 -153 250 -124 201
-195 292 -266 341 -47 32 -80 78 -80 112 0 25 -38 106 -91 194 -28 45 -70 129
-95 185 -48 110 -139 286 -239 463 -34 61 -78 142 -98 180 -31 62 -87 134
-309 400 -60 71 -144 140 -241 197 -108 63 -143 91 -249 201 l-96 100 -107 -6
c-103 -7 -108 -6 -151 19 -60 35 -133 30 -203 -15 -55 -36 -97 -39 -201 -16
-91 20 -176 19 -225 -4 -22 -10 -87 -55 -145 -100 -117 -92 -137 -105 -224
-133 -33 -11 -87 -33 -120 -50 l-59 -30 6 194 c4 125 11 210 20 240 8 27 43
94 77 150 80 129 94 174 79 248 -17 82 -52 143 -110 192 -112 93 -128 110
-155 164 -46 91 -59 95 -504 139 -175 18 -328 18 -393 0z m-4 -875 c1 -80 -4
-230 -11 -335 -6 -104 -13 -381 -14 -614 l-3 -423 -24 -10 c-14 -5 -58 -19
-99 -31 l-73 -21 -38 42 c-23 24 -48 42 -60 42 -37 0 -93 -35 -187 -118 -150
-132 -245 -192 -231 -144 3 9 21 78 41 152 39 146 52 183 98 277 44 92 58 195
66 498 4 149 11 275 15 282 4 7 39 29 77 49 74 38 98 66 125 145 9 24 33 73
55 109 21 36 44 88 51 115 15 65 20 70 93 105 34 16 71 39 81 50 l19 21 9 -23
c5 -13 9 -88 10 -168z m2286 -2194 c47 -19 115 -40 151 -47 127 -24 196 -48
228 -82 95 -100 184 -249 217 -362 27 -94 53 -131 145 -204 48 -37 133 -121
190 -186 69 -78 116 -123 142 -135 32 -14 55 -42 136 -163 129 -195 156 -237
214 -336 60 -103 114 -175 232 -309 110 -125 176 -218 176 -247 0 -35 58 -141
96 -174 37 -33 54 -37 85 -21 14 8 32 7 67 -4 26 -9 63 -18 83 -21 54 -8 117
-53 130 -95 20 -61 46 -104 96 -160 53 -59 126 -110 157 -110 55 0 158 -117
172 -195 10 -58 39 -111 104 -190 61 -74 90 -123 90 -151 0 -24 116 -245 152
-288 17 -21 36 -35 43 -32 21 8 28 -70 9 -99 -23 -34 -17 -174 9 -202 14 -17
17 -40 17 -161 0 -101 -3 -141 -11 -139 -21 4 -31 -67 -26 -187 3 -100 7 -121
22 -132 16 -12 17 -26 12 -151 -5 -113 -8 -139 -23 -150 -12 -9 -47 -11 -129
-6 -102 5 -119 4 -180 -18 l-67 -23 -35 42 c-98 118 -202 96 -421 -87 -67 -56
-143 -111 -169 -123 -107 -46 -222 -160 -244 -240 -7 -28 -30 -62 -68 -102
-94 -100 -121 -147 -121 -214 0 -76 19 -144 66 -233 30 -59 61 -97 151 -184
l112 -111 24 -81 c35 -122 93 -183 134 -142 14 14 57 -46 59 -81 4 -68 -22
-77 -82 -29 -76 61 -248 117 -320 104 -17 -3 -60 -28 -95 -55 -35 -27 -76 -52
-92 -56 -16 -3 -49 -31 -85 -71 -52 -59 -60 -64 -87 -58 -86 18 -89 17 -131
-13 -53 -39 -133 -146 -159 -214 -16 -42 -28 -57 -58 -72 -56 -27 -98 -15
-161 44 -29 27 -63 53 -78 59 -69 26 -242 -64 -405 -213 -99 -89 -106 -92
-147 -67 -40 25 -83 27 -108 4 -23 -21 -23 -28 3 -52 l20 -19 -74 -36 c-65
-31 -77 -41 -95 -80 -24 -50 -55 -72 -162 -112 -85 -31 -3 -29 -755 -22 -225
2 -415 6 -421 10 -5 4 -93 12 -193 18 -101 6 -191 14 -199 19 -11 6 0 18 48
51 71 48 90 82 90 160 0 83 8 90 100 90 44 0 80 -3 80 -6 0 -4 -18 -26 -40
-50 -22 -24 -40 -52 -40 -61 0 -51 84 -124 197 -171 66 -28 75 -28 112 4 38
32 39 58 5 125 -24 49 -25 52 -8 77 9 15 25 36 35 47 30 33 33 68 9 98 -26 32
-28 32 46 7 32 -12 69 -18 81 -15 12 3 41 25 64 50 33 35 52 46 94 55 70 14
169 84 261 183 90 96 108 133 106 217 -1 74 -21 131 -54 154 -51 36 -108 11
-234 -104 -101 -92 -82 -89 -239 -40 -55 17 -186 51 -291 75 -262 61 -298 75
-334 134 -63 102 -90 124 -172 136 -68 10 -114 -8 -128 -50 -6 -18 -27 -55
-47 -80 -19 -26 -35 -58 -35 -70 0 -13 16 -43 36 -68 20 -24 36 -49 36 -55 0
-5 -13 -36 -30 -67 -16 -31 -30 -67 -30 -79 -1 -69 -17 -78 -179 -96 -57 -6
-114 -15 -127 -20 -29 -12 -51 -45 -60 -94 -8 -46 -37 -78 -67 -74 -16 2 -25
15 -34 47 -14 49 -35 76 -75 97 -48 25 -34 36 35 29 54 -6 69 -3 120 20 32 15
90 31 130 36 81 11 117 32 129 75 12 43 0 80 -33 108 -43 37 -95 49 -190 44
-110 -4 -164 -30 -221 -105 -33 -43 -53 -59 -83 -68 -57 -16 -91 -41 -105 -76
-11 -26 -10 -36 4 -66 28 -58 65 -101 116 -132 38 -23 49 -36 54 -65 8 -42 38
-68 111 -95 177 -66 400 -100 450 -67 13 9 28 29 31 44 11 46 32 62 84 62 67
0 74 -12 67 -113 -7 -99 -22 -147 -47 -147 -10 0 -43 12 -74 26 -67 30 -86 28
-147 -21 -24 -19 -48 -35 -54 -35 -5 0 -48 18 -95 40 -47 22 -95 40 -107 40
-14 0 -49 -24 -88 -59 -75 -68 -125 -89 -236 -98 -84 -6 -220 13 -354 50 l-80
23 -7 189 c-3 105 -11 219 -17 254 -6 35 -7 71 -2 79 5 9 10 -7 13 -45 3 -33
12 -70 19 -82 21 -34 85 -64 120 -56 44 10 58 37 52 104 -5 53 -3 60 20 82 33
31 47 69 47 127 0 136 -70 211 -213 228 -31 4 -57 10 -57 14 0 10 38 20 80 20
112 1 290 95 290 154 0 26 -61 97 -113 131 -71 47 -111 53 -172 26 -26 -12
-51 -21 -56 -21 -17 0 -9 85 11 118 11 17 24 32 28 32 5 0 21 12 36 27 23 23
27 34 25 76 -3 49 -3 49 37 63 48 16 94 65 94 100 0 15 -10 42 -21 61 -12 20
-26 56 -31 81 -6 36 -19 58 -57 97 -59 60 -86 112 -112 212 -18 72 -27 242
-13 255 3 4 36 -3 72 -14 157 -46 303 -79 392 -89 159 -17 271 12 278 73 5 40
-19 54 -113 66 -57 8 -120 25 -187 52 -55 22 -125 43 -154 46 -30 4 -54 10
-54 14 0 4 9 15 20 25 31 28 25 67 -20 121 -22 27 -39 56 -38 64 4 22 51 24
89 4 18 -9 51 -17 72 -18 47 -1 77 29 77 78 0 63 -69 100 -264 145 -149 33
-166 45 -166 112 0 39 6 56 36 96 20 26 175 185 344 353 310 307 388 396 505
570 94 141 140 237 196 414 28 87 74 215 103 285 30 69 59 144 66 166 7 22 45
114 85 205 40 91 80 188 88 216 21 71 38 101 113 201 92 122 151 211 220 332
41 72 82 127 135 182 42 43 168 189 280 326 223 272 514 613 630 737 61 65
148 136 167 136 3 0 43 -15 91 -34z m2494 -4863 c-7 -2 -21 -2 -30 0 -10 3 -4
5 12 5 17 0 24 -2 18 -5z m-478 -1667 c18 -13 17 -14 -7 -30 -42 -28 -88 -37
-130 -26 -53 15 -54 26 -6 44 80 28 116 32 143 12z m-8135 -490 c96 -8 348
-25 560 -36 212 -12 387 -24 390 -26 2 -3 12 -29 21 -59 l16 -54 -46 -19 c-87
-37 -300 -55 -381 -32 -19 6 -118 17 -220 25 -223 18 -313 30 -393 51 -125 32
-187 77 -187 135 0 35 -5 35 240 15z m4230 -1067 c7 -11 9 -24 5 -27 -9 -9
-40 13 -43 32 -5 23 25 20 38 -5z"/>
<path d="M7050 7474 c-65 -54 -99 -104 -100 -146 0 -18 -5 -28 -15 -28 -21 0
-36 -43 -29 -82 9 -51 74 -176 110 -215 24 -25 38 -33 52 -29 16 5 20 0 26
-31 11 -71 8 -91 -16 -95 -53 -8 -38 -117 19 -139 103 -40 110 -52 124 -218 9
-102 9 -174 0 -305 -15 -211 -23 -255 -63 -331 l-31 -61 42 -77 c39 -70 42
-82 43 -150 0 -55 -7 -92 -27 -148 -62 -170 -59 -158 -45 -208 33 -118 38
-140 41 -195 l4 -58 -70 -28 c-141 -56 -180 -123 -156 -266 9 -47 9 -70 2 -72
-6 -2 -20 -11 -32 -20 -17 -14 -19 -22 -11 -43 16 -40 90 -99 191 -152 73 -39
115 -53 214 -74 147 -30 174 -27 298 28 86 38 99 41 159 36 36 -3 103 -12 150
-20 143 -27 270 -36 640 -48 304 -9 359 -13 385 -28 54 -31 40 -112 -24 -146
-22 -11 -32 -11 -61 2 -19 8 -91 23 -160 33 -164 24 -196 32 -315 76 -107 39
-233 54 -331 39 -143 -21 -139 -177 6 -229 66 -24 95 -13 104 40 l7 37 63 -6
c72 -7 166 -39 189 -65 15 -17 14 -22 -23 -71 -22 -29 -40 -59 -40 -66 0 -21
-26 -26 -184 -32 -189 -8 -186 -6 -186 -137 0 -113 12 -151 54 -173 46 -24
149 -22 184 4 44 33 41 67 -11 119 -38 37 -41 44 -23 44 39 0 150 -20 198 -36
43 -14 50 -14 83 1 19 10 67 53 106 96 38 43 79 81 89 84 10 3 60 12 111 20
85 12 95 16 127 49 38 41 31 39 121 26 99 -16 110 -9 167 106 77 155 167 235
314 278 88 25 134 65 158 135 28 82 0 193 -64 253 -40 37 -111 68 -160 68 -59
0 -76 16 -72 70 3 43 4 45 32 42 34 -4 74 -29 131 -83 22 -21 51 -40 65 -44
39 -9 76 25 84 77 9 54 21 68 60 68 46 0 146 51 184 94 21 24 32 47 32 66 0
26 4 30 28 30 36 0 100 39 120 72 28 47 -1 65 -142 89 -141 24 -180 42 -266
124 -72 70 -119 96 -200 115 -81 19 -92 26 -88 63 5 49 32 57 193 57 216 1
255 14 255 85 0 57 -23 67 -184 81 -229 19 -239 31 -240 270 -1 114 2 155 13
167 11 14 33 17 123 17 121 0 162 12 196 55 29 37 28 87 -3 153 -14 30 -22 58
-19 63 3 5 32 23 65 40 145 73 130 178 -53 378 -75 80 -102 123 -113 174 -12
61 -142 159 -255 195 -171 55 -786 103 -1543 122 -232 6 -474 15 -537 21 -63
6 -142 13 -175 16 -56 5 -63 3 -95 -23z"/>
<path d="M6372 6087 c-32 -34 -30 -89 4 -116 59 -47 144 -13 144 58 0 72 -99
111 -148 58z"/>
<path d="M6395 5918 c-75 -40 -54 -133 32 -145 37 -5 46 -2 73 25 35 36 38 69
9 106 -16 20 -29 26 -57 26 -20 0 -46 -6 -57 -12z"/>
<path d="M9816 4807 c-14 -14 -26 -33 -26 -42 0 -53 141 -223 208 -252 34 -14
52 -45 52 -89 0 -14 11 -36 25 -49 64 -65 225 0 225 91 0 35 -37 71 -90 89
-64 21 -83 51 -49 77 53 42 59 48 65 74 19 76 -61 114 -258 122 -126 5 -126 4
-152 -21z"/>
<path d="M6246 4180 c-62 -74 -59 -216 6 -251 13 -7 60 -13 108 -13 75 -1 92
-5 145 -32 90 -46 106 -48 175 -19 47 20 65 23 80 15 30 -16 47 -50 54 -108 9
-70 14 -80 47 -98 16 -8 68 -48 116 -90 49 -42 105 -84 125 -95 46 -23 121
-25 238 -4 124 22 166 20 201 -9 77 -65 256 -94 316 -50 15 11 36 37 46 56 16
33 16 40 4 70 -20 47 -56 67 -153 85 -61 11 -100 25 -142 51 -46 29 -68 36
-115 38 -37 1 -64 7 -76 18 -51 46 -160 39 -205 -14 l-23 -28 -22 29 c-14 19
-38 34 -75 44 -60 18 -60 17 -100 156 -22 76 -46 104 -112 128 -72 27 -114 26
-173 -4 l-49 -24 -7 54 c-4 36 -12 55 -23 60 -9 3 -55 3 -102 0 l-85 -6 -55
35 c-70 46 -109 47 -144 6z"/>
<path d="M8274 2891 c-36 -22 -95 -100 -124 -162 -12 -27 -20 -66 -20 -99 0
-47 31 -288 46 -358 6 -29 48 -48 142 -63 66 -11 72 -10 130 16 83 37 94 56
103 190 9 127 14 148 63 240 20 37 36 76 36 85 0 28 -42 58 -110 79 -36 11
-88 36 -117 56 -60 40 -102 45 -149 16z"/>
<path d="M6 5254 c-9 -23 -7 -67 3 -83 24 -38 64 37 41 78 -13 25 -35 27 -44
5z"/>
<path d="M12663 2641 c-74 -34 -64 -83 25 -123 59 -27 88 -18 101 30 14 47 14
68 1 93 -14 25 -71 25 -127 0z"/>
<path d="M12737 1912 c-23 -25 -21 -54 3 -80 25 -26 24 -26 44 -6 29 28 12
104 -23 104 -4 0 -15 -8 -24 -18z"/>
</g>
</svg>
