<svg version="1.2" xmlns="http://www.w3.org/2000/svg" viewBox="0 0 1280 1242" width="640" height="621"><style></style><path  d="m15 703c9.2-28.6 41.2-87.8 50-97 138.4-145.7 90-110.4 111.9-145.4 51.4-82.4 23.7-127.2 339.1-256.6 6.6-2.7 23.1-7.2 14.5-24.2-5-10 6.5-18.9 0-34.8-5.8-14.2 5-18.8-1.6-33.2-4.9-10.7-1.3-44.3 5.1-52.8 9.9-13 27.4-18 83-53 46.7-3.3 72.9 6.6 85.4 10 5 9.1 21.1 17.8 29.8 37.6 6.2 14-8.7 20.1-14.6 43.1-3.2 23.8-1.6 36.6-1.6 37.3 0.4 6.3 23-5 23-5 34.7-20 21.9-25.6 66.3-20.6 22.2-12.3 29 0.8 54.3-0.1 24.9 32.4 71.9 23.8 138.4 190.7 40.1 32.5 52.1 90.9 80 102 4.5 1.8 70.1 85.8 115 113 0 0 43.2 12.5 70 50-0.8 7.8 23.8 11.9 1 57 0 0-1250.3 129.9-1249 82z"/></svg>