<svg version="1.2" xmlns="http://www.w3.org/2000/svg" viewBox="0 0 1280 689" width="640" height="345">
    <path  d="m295.9 217c-2.2 4.5-56.2-13.1 4.2 39.8-30 0 33.9 31.7 3.9 31.7-40.5 25.6 8 14.6 22.6 46.6-79.4-33.8 15.2 42.7 8.1 13.6-9.9-40.5 22.7-49.8-8.1-46.8 2.5-16.2 51.1-50.6-13.1-42.1-30 0 97.2-72 6.2-45.1-2.3-22.8 80.5-70.6 11.7-46.7-3.6-18.6 66.9-61.6 25.2-55.9 14.9-12.2 54-46.3 66.3-110.2 21.8 70.2 127.6 121.8 97.1 152.1-44.2-30.2-0.7 29.5 5 46-82.7 6.8 33.8 24.7 42.6 50.2-32.7 20.2-50.9 20.5-46.1 42.9 20.8 16.3 104.6 1.8 15.5-9.1 24.6-37.4 93.6-21.2 39-43 3.2-9.1 61.7-40 17-27 22.6-20 46.9-75.3 54.3-73.6 17.6 4.1 11.4 74 28.7 71.6 8-1.1 52.6 1.9-6-23-4-20.1 96.5-11.1 28-28-25.2-16.3 82.9 4 22.9-18.7-19.7-27.2 33.6-0.8 13.1-30.3 19.2-20.7 17.3-50.1 26-52 39.1 62.8 85.4 56.8 97.8 80.2-37 39 44.2 77.3 59.2 2.8 39.2 46.7 110.8 66 95 66-66.5 0.1-5.6 45.2 13 38 28-10.8 13.1-40.8 32-35 35.8 56.1 58.3 55.3 67 75-90-18.2 43 50 13 50-78.5-18.9 55 37 25 37-98.2-1.3 46.9 56.4 16.9 56.4-82.5 4.9 91.6 102.8 62.6 95.2-91.5-24.2 60.5 58.9 28.1 75.4-85.7-27.4-130.9 9.7-159.6 1-28.7-8.7-53 18-83 18-30 0-119.6-19.4-167.4 41.5-18.6 23.6-64-8.8-105.7 20.8-24.5 17.3-86.4-49.1-97.3-72.9-12.6-27.3-175.6 35.6-205.6 35.6-30 0-167.2-49.8-219-12-24.2 17.7-198.1-12-228.1-12-30 0 106.2-93.5 32.1-61-12.3-66.1 169.4-121.9 42.5-96.8-30 0 157.5-115.4 27.1-69-30 0 132.7-111.3 24.5-66.2 7.4-27.2 2.7-17.6-14.3-9.1 1.1-35.5 91-42.8 26.9-44.5 13.2-30.5 75.9-30.6 41-39.9-32.1 5.4 37.1-52.3 12.5-46-5.1-0.9 18.3-28.6 33.6-46.6 5.4 1.9 48.8 56.3 66.1 75.1zm-63.9-74"/>
</svg>